PathFileType	3	(X/Y/Z)	C:\Users\koon_\Desktop\
DataRate	CameraRate	NumFrames	NumMarkers	Units	OrigDataRate	OrigDataStartFrame	OrigNumFrames
100.0	100.0	12	27	mm	100.0	3883	5176	
Frame#	Time	get:LFHD			get:RFHD			get:LBHD			get:RBHD			get:C7			get:T10			get:CLAV			get:STRN			get:RBAK			get:LSHO			get:LUPA			get:LELB			get:LFRA			get:LWRA			get:LWRB			get:LFIN			get:RSHO			get:RUPA			get:RELB			get:RFRA			get:RWRA			get:RWRB			get:RFIN			get:LASI			get:RASI			get:LPSI			get:RPSI			
		X1	Y1	Z1	X2	Y2	Z2	X3	Y3	Z3	X4	Y4	Z4	X5	Y5	Z5	X6	Y6	Z6	X7	Y7	Z7	X8	Y8	Z8	X9	Y9	Z9	X10	Y10	Z10	X11	Y11	Z11	X12	Y12	Z12	X13	Y13	Z13	X14	Y14	Z14	X15	Y15	Z15	X16	Y16	Z16	X17	Y17	Z17	X18	Y18	Z18	X19	Y19	Z19	X20	Y20	Z20	X21	Y21	Z21	X22	Y22	Z22	X23	Y23	Z23	X24	Y24	Z24	X25	Y25	Z25	X26	Y26	Z26	X27	Y27	Z27	
3883	38.82	104.97952	1574.5105	-46.624252	-52.010693	1567.3887	-44.092537	97.711739	1570.1846	-171.54643	-28.442083	1576.0498	-188.88205	21.329641	1381.1144	-202.78578	20.31175	1120.9423	-237.35616	30.317863	1307.391	-23.830465	43.269871	1121.2034	29.004784	-61.542667	1313.9047	-229.28133	191.43677	1360.4772	-133.2943	246.91399	1214.4067	-132.13281	261.00015	1033.0991	-163.96802	266.08948	939.16614	-82.849197	260.55042	846.83527	-58.415573	292.08548	839.7428	-120.355	313.78235	765.30566	-74.676163	-128.80986	1369.0872	-114.60873	-197.92139	1150.907	-92.728653	-214.44724	1048.8456	-149.38785	-201.56371	977.50842	-72.696434	-189.06995	822.75427	-61.936516	-236.05312	828.57281	-119.50405	-237.4384	758.42859	-59.320824	157.23735	932.86841	-43.894119	-117.70257	923.27936	-42.525738	70.8545	964.88599	-240.08713	-36.769138	956.21655	-241.46608
3884	38.83	105.33468	1574.5134	-46.372498	-51.632801	1567.3302	-44.2257	98.386436	1570.228	-171.30861	-27.700323	1576.0813	-188.95439	21.986588	1381.3536	-202.70105	20.156752	1121.2393	-237.10857	30.871115	1307.4015	-23.78619	43.208195	1121.1401	28.908978	-61.40707	1314.9768	-229.16769	191.97694	1359.9503	-133.26299	247.18179	1213.8612	-132.11653	261.17978	1032.5795	-163.79926	266.08759	938.78149	-82.446175	260.55646	846.56299	-57.789837	291.961	839.23077	-119.70873	313.93338	765.0434	-73.945526	-127.96072	1370.5476	-114.17245	-198.0601	1152.9103	-91.359703	-214.67751	1050.6715	-148.51038	-201.77426	979.28632	-72.099953	-189.66049	824.52734	-61.484905	-236.72032	830.43549	-118.97431	-238.19603	760.28363	-58.784161	157.20308	932.82715	-43.919033	-117.7173	923.31482	-42.630379	70.904991	964.8606	-240.09415	-36.702084	956.16394	-241.46747
3885	38.84	105.68745	1574.527	-46.090733	-51.250725	1567.2833	-44.361206	99.157555	1570.3264	-171.00133	-26.915005	1576.1155	-189.05481	22.592218	1381.5172	-202.47232	19.959705	1121.5823	-236.77859	31.440191	1307.3983	-23.748146	43.166508	1121.0723	28.859068	-61.202156	1316.0072	-229.14464	192.50743	1359.4557	-133.25027	247.41527	1213.3097	-132.07385	261.10028	1031.9775	-163.63086	266.06168	938.43048	-82.046043	260.59033	846.29254	-57.086632	291.83102	838.7644	-119.19775	313.86563	764.71265	-73.242355	-126.96412	1372.0787	-113.67382	-197.8114	1154.5836	-91.204079	-214.908	1052.606	-147.85104	-202.06436	981.07947	-71.381317	-190.33237	826.21045	-61.041927	-237.43774	832.36298	-118.47842	-238.89574	762.08813	-58.259304	157.20953	932.8371	-43.871914	-117.69201	923.32935	-42.801411	71.00386	964.88519	-240.18965	-36.649223	956.15289	-241.53044
3886	38.85	106.07739	1574.5713	-45.841373	-50.898262	1567.2286	-44.517113	99.844711	1570.3855	-170.75705	-26.153179	1576.1456	-189.14828	23.339363	1381.6791	-202.21077	19.750261	1121.9657	-236.44499	32.003304	1307.4158	-23.617758	43.099075	1121.0028	28.808474	-60.888889	1316.938	-228.93016	192.96632	1358.9746	-133.23813	247.61285	1212.765	-131.96396	260.80316	1031.3108	-163.49973	266.12317	938.04816	-81.677605	260.64731	846.03046	-56.556408	291.68469	838.29547	-118.68341	313.84262	764.40613	-72.551048	-125.91428	1373.6241	-113.22408	-197.80666	1156.7322	-89.870956	-215.58455	1054.4486	-146.72656	-202.43105	982.91913	-70.640022	-191.02754	827.89484	-60.389103	-238.23656	834.29846	-117.91123	-239.6869	763.86322	-57.850796	157.20953	932.84448	-43.919636	-117.68784	923.36938	-42.958809	71.052002	964.89221	-240.21715	-36.549557	956.17993	-241.63635
3887	38.86	106.44004	1574.6085	-45.529282	-50.576939	1567.1875	-44.647457	100.51414	1570.4316	-170.51967	-25.468452	1576.158	-189.21381	24.075697	1381.8826	-202.04558	19.505814	1122.4424	-236.01451	32.64975	1307.4567	-23.3918	43.054966	1120.9928	28.752913	-60.449364	1317.7283	-228.46696	193.45958	1358.4399	-133.30373	247.80792	1212.2288	-131.95874	260.8399	1030.8213	-163.41959	266.11426	937.65277	-81.432968	260.85431	845.76349	-55.899246	291.47223	837.78223	-118.2061	313.81894	764.06451	-71.895325	-124.7964	1375.2412	-112.71186	-197.53188	1158.7474	-89.123375	-215.84743	1056.4689	-145.69678	-202.82735	984.81458	-69.877777	-191.7328	829.67914	-60.148827	-239.01508	836.34961	-117.38806	-240.55754	765.73065	-57.48539	157.22948	932.83881	-43.946869	-117.63803	923.43481	-43.108669	71.13028	964.89056	-240.26317	-36.47773	956.18237	-241.67502
3888	38.87	106.76427	1574.6752	-45.237701	-50.26329	1567.1937	-44.767456	101.19198	1570.4644	-170.222	-24.767965	1576.1472	-189.28931	24.811487	1382.1113	-201.93106	19.206491	1122.9923	-235.61551	33.217533	1307.5103	-23.192595	43.002819	1120.9897	28.763023	-60.052982	1318.6011	-227.90211	193.97414	1357.9742	-133.31813	248.01448	1211.7062	-131.89743	260.69241	1030.2286	-163.35231	266.30487	937.28021	-81.190239	260.92804	845.51575	-55.348289	291.24893	837.28204	-117.77315	313.76892	763.75336	-71.37236	-123.72189	1376.9385	-112.35826	-197.18738	1160.7953	-88.369148	-216.09402	1058.6254	-144.7988	-203.17949	986.82489	-69.036469	-192.58842	831.62366	-59.566349	-239.90842	838.50952	-116.66027	-241.4381	767.6557	-57.213295	157.22632	932.85834	-43.999756	-117.68039	923.46228	-43.319191	71.204292	964.90515	-240.31516	-36.359879	956.22235	-241.79605
3889	38.88	107.04327	1574.7249	-45.029453	-49.944126	1567.2313	-44.896179	101.77313	1570.4673	-170.01173	-24.114222	1576.1282	-189.37027	25.624998	1382.2843	-201.69356	18.880302	1123.5265	-235.08139	33.816597	1307.6212	-23.046301	42.93737	1120.9763	28.682623	-59.516975	1319.5619	-227.50082	194.55858	1357.4875	-133.36403	248.17261	1211.1688	-131.923	260.49106	1029.639	-163.28709	266.40695	936.9165	-80.959511	260.91824	845.20227	-54.747139	290.90533	836.77533	-117.31462	313.70688	763.4248	-70.874527	-122.54455	1378.6749	-111.95779	-196.7532	1162.9569	-87.61132	-216.31996	1060.9503	-143.92035	-203.49065	989.05231	-68.197845	-193.30768	833.63885	-58.978489	-240.8494	840.90875	-115.99683	-242.34563	769.76544	-56.797268	157.22144	932.88184	-43.991676	-117.73106	923.50586	-43.469101	71.254982	964.9212	-240.38345	-36.230148	956.25122	-241.92383
3890	38.89	107.35355	1574.8445	-44.765598	-49.603874	1567.3041	-44.926624	102.35896	1570.48	-169.8304	-23.510876	1576.0679	-189.3911	26.433838	1382.5219	-201.5952	18.669762	1123.9838	-234.40788	34.456463	1307.7167	-22.865278	42.940598	1120.9795	28.701172	-58.888435	1320.351	-226.98114	195.13068	1357.0416	-133.34332	248.37709	1210.6125	-131.96262	260.30667	1029.1228	-163.19943	266.37048	936.54767	-80.654945	260.94888	844.92493	-54.178616	290.54236	836.22247	-116.81571	313.54501	763.11157	-70.369492	-121.4097	1380.5055	-111.63922	-196.25764	1165.2446	-86.802315	-216.44778	1063.3138	-142.98788	-203.6756	991.32654	-67.359116	-194.16016	835.80664	-58.419395	-241.83051	843.48566	-115.32784	-243.21091	771.87042	-56.359154	157.24088	932.8819	-43.995537	-117.72519	923.5199	-43.571251	71.315361	964.88776	-240.40218	-36.125553	956.29352	-241.95564
3891	38.9	107.71294	1574.9686	-44.537392	-49.272491	1567.3502	-44.972931	102.94629	1570.5109	-169.62891	-22.948999	1576.0476	-189.40906	27.265312	1382.7625	-201.31032	18.609169	1124.381	-233.81485	35.10088	1307.8494	-22.600677	42.928642	1121.0491	28.664824	-58.252098	1321.2316	-226.74583	195.74994	1356.5454	-133.27713	248.56775	1210.0878	-131.97261	260.15112	1028.5524	-163.10538	266.28241	936.17053	-80.379753	260.92987	844.65759	-53.546738	290.18735	835.75256	-116.38734	313.27612	762.77325	-69.777527	-120.21803	1382.2957	-111.37341	-195.84657	1167.5328	-86.162956	-216.5188	1065.7291	-142.05251	-203.83145	993.7124	-66.505074	-194.98553	838.06494	-58.104557	-242.91513	846.05121	-114.53853	-244.21185	774.02649	-55.933243	157.23962	932.85315	-44.025047	-117.73052	923.56	-43.659695	71.372498	964.92145	-240.47276	-35.982738	956.35193	-242.08554
3892	38.91	108.04279	1575.1063	-44.344032	-48.920429	1567.4065	-44.983486	103.49973	1570.5438	-169.39003	-22.374712	1575.955	-189.40759	28.161909	1383.0148	-201.07988	18.605555	1124.833	-233.38036	35.70768	1307.9813	-22.522171	42.973289	1121.0957	28.707764	-57.558723	1322.1071	-226.39659	196.3326	1356.1271	-133.19771	248.80266	1209.535	-131.96989	260.00681	1028.0029	-162.95718	266.15802	935.81897	-80.079453	260.78302	844.34473	-53.036533	289.82608	835.29572	-115.92881	313.11703	762.46613	-69.129433	-118.9397	1384.1052	-111.06602	-195.48274	1169.8368	-85.577568	-216.49637	1068.1194	-141.25832	-204.04544	996.08002	-65.750229	-195.95854	840.24384	-57.546066	-243.87434	848.66144	-114.04347	-245.29276	776.20026	-55.551304	157.26288	932.8559	-44.023594	-117.75684	923.59229	-43.774979	71.467216	964.93579	-240.50305	-35.938267	956.31525	-241.96664
3893	38.92	108.36803	1575.2585	-44.091389	-48.63702	1567.4205	-45.054913	104.02803	1570.5287	-169.22182	-21.844055	1575.8372	-189.4259	29.064301	1383.3103	-200.9373	18.603188	1125.2969	-233.10808	36.288677	1308.1263	-22.410728	43.023705	1121.1497	28.663509	-56.900368	1323.0901	-226.11198	196.90262	1355.6774	-133.11357	249.00807	1209.0128	-131.90369	259.9035	1027.4426	-162.76221	265.98193	935.44769	-79.682594	260.49017	844.07678	-52.501003	289.41302	834.80011	-115.40302	312.70871	762.09644	-68.564812	-117.72562	1385.8717	-110.85375	-195.26811	1172.1656	-85.03923	-216.54507	1070.4103	-140.42046	-204.41187	998.39465	-65.102379	-196.96397	842.40759	-56.910213	-244.88333	851.18677	-113.51343	-246.50018	778.44482	-55.272774	157.23325	932.841	-44.075794	-117.77065	923.62054	-43.89846	71.514946	965.02393	-240.57922	-35.916359	956.37201	-241.98904
3894	38.93	108.63831	1575.375	-43.889492	-48.318996	1567.4723	-45.0396	104.54334	1570.5337	-168.97687	-21.403973	1575.495	-189.24475	30.001493	1383.5037	-200.57973	18.605669	1125.7377	-232.96698	36.874393	1308.2625	-22.269203	43.070324	1121.2505	28.501833	-56.138	1323.9001	-225.60651	197.49228	1355.1935	-132.92842	249.23653	1208.5133	-131.76364	259.79144	1026.8915	-162.55818	265.70947	935.07861	-79.310768	260.17395	843.7713	-51.949123	289.13126	834.25494	-114.82065	312.23666	761.71301	-67.908836	-116.43077	1387.6046	-110.65573	-195.0795	1174.4496	-84.528969	-216.13945	1072.8579	-140.19656	-204.88496	1000.6479	-64.423004	-198.12598	844.58112	-56.331326	-245.771	853.66656	-113.131	-247.8065	780.67169	-55.008694	157.2803	932.85541	-44.098351	-117.73829	923.68896	-43.965206	71.569046	965.08228	-240.60193	-35.852749	956.49097	-242.09309
